<svg width="1017" height="370" viewBox="0 0 1017 370" fill="none" xmlns="http://www.w3.org/2000/svg">
<path d="M976.521 367.723H976.526C997.649 367.657 1014.77 350.555 1014.85 329.431V329.426V39.8131V39.8084C1014.78 18.685 997.665 1.56592 976.542 1.5H976.537L444.782 1.49999L444.777 1.50001C423.654 1.56592 406.534 18.685 406.469 39.8084V39.8131L406.469 329.41L406.469 329.414C406.534 350.538 423.654 367.657 444.777 367.723H444.782H976.521Z" fill="black" fill-opacity="0.7" stroke="white" stroke-width="3"/>
<path d="M47.6908 271.997V209.169L0 121.198H31.3505L49.4642 159.832C54.6576 171.042 58.4577 179.576 62.5111 189.836H62.9069C66.7545 180.225 70.9504 170.836 76.1438 159.832L94.2574 121.198H125.323L75.1779 208.473V271.981L47.6908 271.997Z" fill="white"/>
<path d="M223.634 216.469C225.882 246.173 203.62 272.061 173.916 274.309C171.842 274.468 169.768 274.499 167.709 274.42C138.671 275.576 114.192 252.95 113.036 223.911C112.957 222.058 112.989 220.19 113.115 218.337C110.867 188.697 133.097 162.841 162.738 160.592C165.002 160.418 167.266 160.386 169.53 160.513C198.363 159.421 222.636 181.904 223.729 210.737C223.808 212.653 223.776 214.569 223.634 216.469ZM141.537 217.688C141.537 238.636 151.797 254.58 168.565 254.58C184.256 254.58 195.244 239.174 195.244 217.15C195.244 200.129 187.596 180.733 168.834 180.733C149.374 180.653 141.537 199.432 141.537 217.688Z" fill="white"/>
<path d="M343.827 239.285C343.827 252.252 344.286 263.035 344.713 271.981H320.52L319.174 255.372H318.762C311.368 267.516 298.036 274.768 283.817 274.372C263.883 274.372 245.817 262.481 245.817 226.871V162.951H273.304V222.279C273.304 240.393 279.178 252.157 293.697 252.157C306.317 251.793 316.34 241.422 316.276 228.787V162.983H343.827C343.827 162.983 343.827 239.285 343.827 239.285Z" fill="white"/>
<path opacity="0.2" d="M407.969 49.6141V297.822C408.032 302.445 408.792 307.021 410.233 311.407L776.67 3H408.19" fill="white"/>
<path d="M518.994 144.172H476.037V121.198H590.039V144.172H546.576V272.013H518.994V144.172V144.172Z" fill="white"/>
<path d="M692.958 239.284C692.958 252.252 693.417 263.035 693.844 271.981H669.65L668.305 255.371H667.909C660.514 267.516 647.183 274.768 632.964 274.372C613.03 274.372 594.963 262.481 594.963 226.871V162.951H622.419V222.279C622.419 240.393 628.293 252.157 642.813 252.157C655.432 251.793 665.455 241.422 665.391 228.787V162.982H692.942L692.958 239.284Z" fill="white"/>
<path d="M721.822 271.997C722.281 264.571 722.772 252.553 722.772 241.327V113.075H750.259V177.993H750.718C758.477 166.482 771.698 159.879 785.552 160.576C812.232 160.576 831.217 182.743 831.027 215.851C831.027 255.039 806.152 274.435 781.578 274.435C767.47 275.148 754.154 267.896 747.124 255.641H746.665L745.319 271.981L721.822 271.997ZM750.323 226.998C750.291 229.183 750.528 231.352 751.004 233.474C753.79 244.715 763.813 252.648 775.387 252.791C792.614 252.791 803.159 238.873 803.159 216.991C803.159 197.674 793.976 181.983 775.609 181.983C763.845 182.379 753.838 190.644 751.225 202.123C750.687 204.466 750.402 206.873 750.338 209.28L750.323 226.998Z" fill="white"/>
<path d="M873.16 225.24C873.761 241.58 887.505 254.342 903.845 253.741C904.811 253.709 905.777 253.63 906.727 253.487C917.019 253.725 927.263 252.03 936.922 248.484L940.975 267.484C928.815 272.123 915.879 274.419 902.864 274.245C874.49 276.826 849.378 255.91 846.797 227.536C846.543 224.733 846.512 221.915 846.718 219.112C844.2 189.377 866.256 163.236 895.992 160.718C897.322 160.607 898.636 160.544 899.966 160.528C935.37 160.528 946.992 189.709 946.992 213.634C947.023 217.529 946.723 221.424 946.105 225.272H873.16V225.24V225.24ZM921.056 205.923C922.798 193.082 913.805 181.254 900.964 179.513C900.124 179.402 899.285 179.323 898.43 179.307C884.307 180.146 873.223 191.768 873.096 205.923H921.056Z" fill="white"/>
</svg>
